<?xml version="1.0" standalone="no"?>
<!DOCTYPE svg PUBLIC "-//W3C//DTD SVG 20010904//EN"
 "http://www.w3.org/TR/2001/REC-SVG-20010904/DTD/svg10.dtd">
<svg version="1.0" xmlns="http://www.w3.org/2000/svg"
 width="700.000000pt" height="700.000000pt" viewBox="0 0 700.000000 700.000000"
 preserveAspectRatio="xMidYMid meet">
<metadata>
Created by potrace 1.11, written by Peter Selinger 2001-2013
</metadata>
<g transform="translate(0.000000,700.000000) scale(0.100000,-0.100000)"
fill="#000000" stroke="none">
<path d="M3455 6983 c-16 -3 -203 -42 -415 -88 -212 -46 -801 -172 -1310 -280
-509 -108 -936 -202 -950 -209 -18 -8 -26 -20 -28 -43 -2 -17 -9 -37 -17 -43
-7 -6 -149 -40 -316 -76 -167 -36 -318 -72 -336 -81 -18 -8 -43 -30 -56 -47
l-22 -31 3 -595 2 -595 30 -25 30 -25 0 -1122 c0 -1104 0 -1123 -20 -1155 -19
-32 -20 -51 -20 -586 0 -638 -6 -596 93 -642 34 -16 790 -324 1681 -684 1542
-625 1622 -656 1681 -656 60 0 139 31 1714 670 909 369 1665 677 1681 685 16
8 35 25 41 37 9 17 13 389 14 1543 1 1082 5 1572 14 1700 7 99 16 475 20 835
5 360 11 666 15 680 5 19 2 28 -12 37 -10 6 -142 37 -293 68 -151 31 -284 61
-296 66 -15 5 -23 17 -23 32 0 13 -8 31 -17 39 -12 10 -484 112 -1288 278
-698 144 -1315 272 -1370 285 -111 25 -185 34 -230 28z m215 -65 c47 -10 650
-136 1340 -278 1337 -276 1300 -269 1300 -280 0 -9 -2797 -712 -2835 -712 -16
0 -592 152 -1280 337 -1398 376 -1385 372 -1385 385 0 4 24 13 53 20 669 145
2572 549 2597 552 49 6 111 -1 210 -24z m2981 -698 c133 -28 255 -57 272 -63
28 -12 -4 -22 -484 -155 -530 -146 -1160 -313 -1684 -447 -165 -42 -518 -133
-785 -202 -452 -117 -490 -125 -555 -120 -49 3 -548 134 -1670 437 -880 238
-1608 434 -1617 437 -53 15 -1 33 275 91 160 35 302 62 313 62 26 0 34 -18 34
-75 0 -77 11 -92 87 -114 37 -11 635 -174 1328 -361 860 -234 1276 -342 1310
-342 69 0 2819 693 2854 720 22 16 27 29 31 88 5 74 13 94 36 94 8 0 123 -23
255 -50z m280 -182 c4 -194 -4 -1106 -11 -1119 -5 -9 -24 -22 -42 -28 -18 -6
-566 -167 -1218 -357 -652 -191 -1191 -352 -1198 -358 -15 -15 -34 11 236
-321 225 -275 243 -295 274 -295 12 0 200 57 417 126 l396 126 32 -19 c45 -25
1050 -1215 1076 -1273 20 -44 20 -58 14 -567 -4 -286 -9 -527 -12 -535 -3 -8
-18 -21 -33 -30 -25 -15 -3278 -1336 -3329 -1352 -19 -6 -25 -2 -33 19 -6 16
-10 242 -10 601 0 619 1 631 52 654 13 6 498 185 1078 399 791 291 1055 392
1054 403 -1 15 -262 345 -328 415 -18 20 -40 33 -55 33 -14 0 -216 -68 -450
-151 -278 -98 -432 -148 -447 -145 -22 6 -822 862 -874 936 l-25 35 -3 962 -2
961 22 26 c21 22 201 70 1688 449 916 234 1680 425 1698 426 27 1 32 -3 33
-21z m-6359 -107 c678 -175 2792 -738 2841 -757 10 -4 23 -18 28 -31 5 -14 9
-411 9 -958 0 -910 -1 -936 -20 -987 -15 -41 -48 -83 -147 -188 -69 -74 -249
-268 -399 -431 -151 -163 -281 -299 -290 -303 -8 -3 -25 -6 -37 -6 -12 0 -206
65 -430 145 -225 80 -420 145 -433 145 -42 0 -60 -16 -166 -148 -56 -70 -135
-167 -175 -215 -40 -48 -73 -90 -73 -92 0 -5 -24 4 1120 -416 786 -289 1010
-375 1028 -395 l22 -25 0 -597 c0 -328 -4 -603 -9 -611 -5 -8 -16 -11 -28 -7
-11 4 -758 306 -1659 671 -986 400 -1645 672 -1655 684 -14 17 -17 84 -23 539
-6 363 -4 531 3 559 9 31 119 167 497 614 267 316 507 595 532 621 28 29 58
50 77 54 28 5 180 -41 719 -217 61 -19 102 -24 130 -13 9 3 69 72 135 153 65
80 171 209 235 286 64 76 116 147 116 157 0 10 -10 23 -22 28 -13 6 -549 163
-1193 350 -643 187 -1185 347 -1203 355 -18 8 -36 25 -41 37 -8 24 -22 1083
-14 1106 3 6 18 12 33 12 16 0 237 -54 492 -119z"/>
</g>
</svg>
