<?xml version="1.0" encoding="UTF-8" standalone="no"?>
<svg
   xmlns:dc="http://purl.org/dc/elements/1.1/"
   xmlns:cc="http://creativecommons.org/ns#"
   xmlns:rdf="http://www.w3.org/1999/02/22-rdf-syntax-ns#"
   xmlns:svg="http://www.w3.org/2000/svg"
   xmlns="http://www.w3.org/2000/svg"
   height="512"
   width="512"
   xml:space="preserve"
   viewBox="0 0 512 512"
   y="0px"
   x="0px"
   id="Layer_1"
   version="1.1"><metadata
     id="metadata21"><rdf:RDF><cc:Work
         rdf:about=""><dc:format>image/svg+xml</dc:format><dc:type
           rdf:resource="http://purl.org/dc/dcmitype/StillImage" /><dc:title></dc:title></cc:Work></rdf:RDF></metadata><defs
     id="defs19" /><style
     id="style3"
     type="text/css">
	.st0{fill:#EAEAEA;}
	.st1{fill:#EC1C24;}
	.st2{fill:#C4C4C4;}
</style><g
     transform="translate(-50.338983,-139.05085)"
     id="g5"><path
       id="path7"
       d="m 52.1,506.8 c 0,-10.5 0,-21 0,-31.5 0,-4.9 -1.1,-9.9 3,-14.1 0.8,-0.8 0.4,-2.8 0.4,-4.3 0,-52.2 0,-104.3 0,-156.5 0,-2.5 0.1,-4.6 -2.9,-5.6 -2.1,-0.7 -1.8,-3 -1.8,-4.8 -0.3,-26.7 -0.6,-53.4 -0.8,-80.2 0,-5.3 3.9,-9.8 9.1,-11 14,-3 28.1,-6 42.1,-9 1.8,-0.4 4,-0.3 3.5,-3.1 -0.7,-4.2 2.2,-4.8 5.3,-5.4 38.7,-8.2 77.3,-16.5 116,-24.8 24.8,-5.3 49.7,-10.4 74.4,-16 9.2,-2.1 17.4,1.4 25.8,3.1 60.5,12.3 120.9,24.9 181.4,37.5 3.4,0.7 8.2,0.3 8.3,6.2 0.1,2.2 3,1.8 4.6,2.1 12,2.6 24.1,5.2 36.1,7.6 4.3,0.8 6.9,2.2 4.1,6.9 -1.1,1.8 -0.1,3.6 -0.1,5.3 -0.2,26.4 0.7,52.8 -0.7,79 -3,56.1 -3.1,112.3 -2.5,168.4 0.3,29 -0.1,58 0.8,87.1 0.2,5 -1.8,7.5 -6.4,9.4 -80.1,32.4 -160.1,64.8 -240.1,97.4 -4.5,1.8 -8.4,1.8 -12.9,0 C 219,618 139.1,585.6 59.2,553.4 c -5,-2 -7.2,-4.7 -7,-10.2 0.4,-12.1 0.1,-24.3 0.1,-36.5 0.1,0.1 -0.1,0.1 -0.2,0.1 z" /><path
       style="fill:#eaeaea"
       id="path9"
       d="m 306,343.2 c 0,-22.5 0.1,-45 -0.1,-67.4 0,-3.7 1.1,-5 4.7,-5.9 80.9,-20.5 161.8,-41.1 242.7,-61.8 3.5,-0.9 4.1,-0.2 4.1,3.1 -0.3,25.8 -0.5,51.6 -0.4,77.4 0,4.1 -2.4,4.3 -5.1,5.1 -57,16.7 -114.1,33.3 -171.1,50 -6.3,1.8 -6.3,1.8 -2.2,6.8 10.4,12.6 20.8,25.1 31,37.8 2.3,2.8 4.1,3.2 7.5,2.1 17.9,-5.9 35.9,-11.3 53.7,-17.1 3.4,-1.1 5.2,-0.5 7.5,2.2 24.5,29.1 49,58.1 73.7,87 2.3,2.7 3.4,5.3 3.4,8.9 -0.3,24.1 -0.4,48.3 -0.3,72.4 0,3.9 -1.4,5.3 -4.8,6.7 -79.5,32.1 -158.9,64.4 -238.4,96.6 -5.8,2.3 -5.8,2.3 -5.8,-3.8 0,-27.1 0.1,-54.2 -0.1,-81.3 0,-4.3 1.4,-5.9 5.3,-7.4 50,-18.3 99.9,-36.7 149.8,-55.1 6,-2.2 6,-2.2 1.9,-7.2 -7,-8.6 -14.2,-17.1 -21,-25.9 -2.3,-3 -4.2,-3.6 -7.9,-2.3 -19.4,7 -39,13.7 -58.4,20.7 -2.9,1 -4.8,0.9 -7.1,-1.6 -19.5,-21.4 -39.2,-42.6 -58.9,-63.8 -2.6,-2.7 -3.7,-5.5 -3.7,-9.3 0.1,-22.3 0,-44.6 0,-66.9 z"
       class="st0" /><path
       style="fill:#ec1c24"
       id="path11"
       d="m 143.8,497.2 c 12.3,4.6 24.2,9 36,13.3 39.2,14.4 78.3,28.9 117.6,43.2 4.2,1.5 5.5,3.6 5.4,7.9 -0.2,26.9 -0.1,53.8 -0.1,80.7 0,6.1 0,6.1 -5.6,3.9 -78.9,-32 -157.8,-64 -236.7,-96 -3.2,-1.3 -4.5,-2.8 -4.5,-6.4 0,-24.5 -0.1,-49 -0.4,-73.5 0,-2.7 0.7,-4.9 2.5,-7 24.4,-28.7 48.8,-57.3 73,-86.1 3.2,-3.8 5.9,-5.2 11.2,-3.4 17.1,5.9 34.5,10.9 51.6,16.6 3.5,1.1 5.4,0.5 7.6,-2.2 10.3,-12.8 20.7,-25.7 31.4,-38.2 3.3,-3.9 2.4,-4.9 -2.1,-6.2 -56.9,-16.5 -113.8,-33.2 -170.8,-49.7 -4.2,-1.2 -5.9,-2.7 -5.9,-7.4 0.1,-24.5 -0.2,-49 -0.8,-73.5 -0.1,-5.6 1.5,-5.7 6.2,-4.5 79.9,20.1 159.3,41.9 238.9,63.1 4.2,1.1 4.4,3.4 4.4,6.8 -0.1,43.7 -0.2,87.4 0.1,131 0,5.9 -1.5,10.1 -5.7,14.4 -18.4,19.4 -36.4,39.1 -54.4,58.8 -2.5,2.8 -4.6,3.2 -8.1,1.9 -18.9,-6.8 -38,-13.2 -56.9,-20.2 -4.6,-1.7 -6.9,-0.7 -9.7,2.9 -7.7,9.9 -15.8,19.5 -24.2,29.8 z"
       class="st1" /><path
       style="fill:#c4c4c4"
       id="path13"
       d="m 512.8,185.9 c -69.5,17.5 -137.6,34.6 -205.8,51.8 -1.7,0.4 -3.2,0.5 -4.9,0 -63.7,-17.2 -127.4,-34.3 -191.1,-51.5 -0.4,-0.1 -0.8,-0.6 -1.9,-1.4 15.2,-3.3 29.7,-6.4 44.2,-9.5 49.1,-10.5 98.2,-20.9 147.2,-31.5 9.2,-2 17.4,1.4 25.8,3.1 60.3,12.2 120.6,24.8 180.9,37.3 1.5,0.5 2.9,1 5.6,1.7 z"
       class="st2" /><path
       style="fill:#c4c4c4"
       id="path15"
       d="m 58.2,202.5 c 14.4,-3.1 28.7,-6.1 43.1,-9.3 3.3,-0.7 3.6,0.8 3.6,3.4 0.2,8.9 0.2,8.9 9,11.3 62.1,16.8 124.1,33.5 186.2,50.4 3.2,0.9 6.2,0.7 9.3,-0.1 66.9,-16.9 133.7,-33.8 200.7,-50.5 5.4,-1.3 6,-4 5.9,-8.5 -0.3,-7.3 0,-7.3 7.2,-5.8 10.4,2.2 20.8,4.4 31.2,6.6 1.2,0.3 2.4,0.8 4.3,1.5 -47.5,13.3 -94.3,26.3 -141.3,38.2 -36.1,9.2 -72.3,18.2 -108.3,27.8 -5.6,1.5 -10.3,1.2 -15.5,-0.2 C 216.8,246.5 139.9,225.9 63,205.2 c -1.6,-0.4 -3.1,-1 -4.7,-1.5 -0.1,-0.5 -0.1,-0.9 -0.1,-1.2 z"
       class="st2" /></g></svg>